<svg width="24" height="24" viewBox="0 0 24 24" fill="none" xmlns="http://www.w3.org/2000/svg">
<path fill-rule="evenodd" clip-rule="evenodd" d="M16.1016 11.1952H12.4653V7.52116C12.4653 7.1545 12.1711 6.85714 11.808 6.85714C11.4451 6.85714 11.1508 7.1545 11.1508 7.52116V11.1952H7.51436C7.15145 11.1952 6.85715 11.4925 6.85715 11.8592C6.85715 12.2257 7.15145 12.5232 7.51436 12.5232H11.1508V16.1972C11.1508 16.5637 11.4451 16.8611 11.808 16.8611C12.1711 16.8611 12.4653 16.5637 12.4653 16.1972V12.5232H16.1016C16.4646 12.5232 16.7588 12.2257 16.7588 11.8592C16.7588 11.4925 16.4646 11.1952 16.1016 11.1952Z" fill="#717171"/>
<circle cx="12" cy="12" r="8.4" stroke="#717171" stroke-width="1.2"/>
</svg>
