<svg width="19" height="17" viewBox="0 0 19 17" fill="none" xmlns="http://www.w3.org/2000/svg">
<path d="M16.55 6.00001C16.55 5.69625 16.3038 5.45001 16 5.45001C15.6962 5.45001 15.45 5.69625 15.45 6.00001H16.55ZM3.55 6.00001C3.55 5.69625 3.30376 5.45001 3 5.45001C2.69624 5.45001 2.45 5.69625 2.45 6.00001H3.55ZM6.45 15.4737C6.45 15.7774 6.69624 16.0237 7 16.0237C7.30376 16.0237 7.55 15.7774 7.55 15.4737H6.45ZM17.6828 7.44934C17.931 7.62451 18.2742 7.56534 18.4493 7.31718C18.6245 7.06902 18.5653 6.72585 18.3172 6.55067L17.6828 7.44934ZM10.0767 1.40708L10.3939 0.957745L10.3939 0.957744L10.0767 1.40708ZM8.92332 1.40708L9.24049 1.85641L9.24049 1.85641L8.92332 1.40708ZM0.682824 6.55067C0.434665 6.72585 0.375496 7.06902 0.550668 7.31718C0.725839 7.56534 1.06902 7.62451 1.31718 7.44934L0.682824 6.55067ZM15.45 6.00001V13.8947H16.55V6.00001H15.45ZM14 15.45H5V16.55H14V15.45ZM3.55 13.8947V6.00001H2.45V13.8947H3.55ZM5 15.45C4.51225 15.45 4.20464 15.4487 3.9798 15.4169C3.77379 15.3877 3.72021 15.343 3.69164 15.3129L2.89414 16.0705C3.15847 16.3487 3.48704 16.4581 3.82566 16.506C4.14544 16.5513 4.54494 16.55 5 16.55V15.45ZM2.45 13.8947C2.45 14.3762 2.44894 14.7898 2.49104 15.1194C2.53481 15.4621 2.6336 15.7962 2.89414 16.0705L3.69164 15.3129C3.6593 15.2788 3.61164 15.2107 3.58218 14.9801C3.55106 14.7364 3.55 14.4057 3.55 13.8947H2.45ZM15.45 13.8947C15.45 14.4057 15.4489 14.7364 15.4178 14.9801C15.3884 15.2107 15.3407 15.2788 15.3084 15.3129L16.1059 16.0705C16.3664 15.7962 16.4652 15.4621 16.509 15.1194C16.5511 14.7898 16.55 14.3762 16.55 13.8947H15.45ZM14 16.55C14.4551 16.55 14.8546 16.5513 15.1743 16.506C15.513 16.4581 15.8415 16.3487 16.1059 16.0705L15.3084 15.3129C15.2798 15.343 15.2262 15.3877 15.0202 15.4169C14.7954 15.4487 14.4877 15.45 14 15.45V16.55ZM9 9.7079H10V8.6079H9V9.7079ZM11.45 11.2632V15.4737H12.55V11.2632H11.45ZM6.45 11.2632V15.4737H7.55V11.2632H6.45ZM10 9.7079C10.7746 9.7079 11.45 10.3773 11.45 11.2632H12.55C12.55 9.82363 11.4346 8.6079 10 8.6079V9.7079ZM9 8.6079C7.56543 8.6079 6.45 9.82363 6.45 11.2632H7.55C7.55 10.3773 8.22543 9.7079 9 9.7079V8.6079ZM18.3172 6.55067L10.3939 0.957745L9.75951 1.85641L17.6828 7.44934L18.3172 6.55067ZM8.60614 0.957745L0.682824 6.55067L1.31718 7.44934L9.24049 1.85641L8.60614 0.957745ZM10.3939 0.957744C9.85798 0.579478 9.14202 0.579478 8.60614 0.957745L9.24049 1.85641C9.39607 1.74659 9.60393 1.74659 9.75951 1.85641L10.3939 0.957744Z" fill="url(#paint0_linear_111_59)"/>
<defs>
<linearGradient id="paint0_linear_111_59" x1="12.5" y1="6.5" x2="9.5" y2="7" gradientUnits="userSpaceOnUse">
<stop stop-color="#D03660"/>
<stop offset="1" stop-color="#D73B54"/>
</linearGradient>
</defs>
</svg>
