<svg width="20" height="17" viewBox="0 0 20 17" fill="none" xmlns="http://www.w3.org/2000/svg">
<path fill-rule="evenodd" clip-rule="evenodd" d="M9.99963 16.1445L9.39101 15.7863C5.09282 13.2568 2.63772 10.74 1.41984 8.52198C0.121905 6.15823 0.225021 4.14075 0.962672 2.69358C2.48242 -0.287954 6.78021 -1.19385 9.37208 2.08424L9.99958 2.87788L10.6271 2.08428C13.2195 -1.19395 17.5175 -0.287863 19.0372 2.69358C19.7748 4.14074 19.8779 6.15821 18.5799 8.52196C17.3619 10.7399 14.9066 13.2568 10.6083 15.7863L9.99963 16.1445ZM9.99952 4.8126L8.43077 2.8285C6.41304 0.276565 3.17774 0.990342 2.0318 3.23854C1.49788 4.286 1.33887 5.88135 2.4717 7.94441C3.55146 9.91084 5.81505 12.2894 9.99965 14.7521C14.1844 12.2894 16.4482 9.9108 17.528 7.94436C18.6609 5.88129 18.5019 4.28596 17.968 3.23853C16.8222 0.99047 13.5866 0.276406 11.5684 2.8286L9.99952 4.8126Z" fill="url(#paint0_linear_13_29)"/>
<defs>
<linearGradient id="paint0_linear_13_29" x1="19.5777" y1="0.00760994" x2="-1.38468" y2="2.85822" gradientUnits="userSpaceOnUse">
<stop stop-color="#D03660"/>
<stop offset="1" stop-color="#D73B54"/>
</linearGradient>
</defs>
</svg>
