<svg id="Capa_1" data-name="Capa 1" xmlns="http://www.w3.org/2000/svg" viewBox="0 0 804.77 804.77"><defs><style>.cls-1{fill:#f7f7f7;}.cls-2{fill:#ddd;}.cls-3{fill:#c2c2c2;}</style></defs><rect class="cls-1" width="804.77" height="804.77"/><path class="cls-2" d="M539.92,874.94c-109.48.61-202-90.13-200-203.93,1.86-105.87,89.64-198.1,204.4-196,105.38,1.9,198,89.58,195.67,204.74C737.85,785.43,650.72,875.28,539.92,874.94Zm.41-24a161.9,161.9,0,0,0,31.14-3,175.81,175.81,0,0,0,80-37.06c2.42-2,3.83-3.32.68-6.45q-121-120.66-241.65-241.6c-2.62-2.62-4-2.34-6.13.26a168.85,168.85,0,0,0-18.9,28c-19.31,36.42-26,75-18.44,115.66,8,42.91,29.26,78.19,63.09,105.46C462.16,838,499.22,850.54,540.33,851Zm-3-351.94c-7.19-.3-16.45.85-25.58,2.39a177.2,177.2,0,0,0-82.67,37.15c-3.4,2.72-4,4.37-.46,7.86q120.12,119.76,240,239.77a13.39,13.39,0,0,1,1.4,1.42c1.75,2.36,3.32,2.18,5-.12,3.73-5.08,7.86-9.9,11.28-15.17,25.5-39.29,35-82,26.7-128.3-7.73-43.14-29-78.63-62.92-106.07C618,512,580.77,499.42,537.33,499Z" transform="translate(-137.6 -272.62)"/><path class="cls-3" d="M577,746.87c-.81,0-1.61.1-2.41.1-46,0-91.95,0-137.93.1-3.79,0-4.7-1.07-4.69-4.76q.19-61.47,0-122.93c0-3.53,1.09-4.18,4.46-4.52,7.1-.71,12.12,1.67,16.93,6.95,8.62,9.47,17.91,18.35,27.14,27.26,2.7,2.6,3.49,4.81,2.43,8.58-8,28.34,2.54,54.89,28,69.62a55.15,55.15,0,0,0,45.27,5.15c4.71-1.45,7.59-.63,10.7,3s7.15,6.91,10.77,10.32Z" transform="translate(-137.6 -272.62)"/><path class="cls-3" d="M549.77,719.11c-16.88,3-31.09-1.15-42.46-13-10.81-11.27-14.24-25-11.47-40.71C499.57,668.1,545.64,714,549.77,719.11Z" transform="translate(-137.6 -272.62)"/><path class="cls-3" d="M648,681q0,30.72,0,61.43c0,1.41.78,3.34-.69,4.15-1.92,1.07-2.93-1-4-2.09C628.49,729.8,613.84,715,599,700.41c-2.48-2.44-2.88-4.49-2-7.79,7.92-28.56-2-54.29-27.26-69.45-14.53-8.72-30.32-10.47-46.58-5.41-4,1.25-6.59.59-9.46-2.56-6.07-6.62-12.65-12.78-19-19.17-1.13-1.14-3.26-2.2-2.64-3.9.8-2.16,3.23-1,4.9-1.06,28.81-.07,57.62,0,86.42-.12,3.26,0,5.17.78,6.53,3.9,2.25,5.18,5.2,10.07,7.44,15.25,1.59,3.66,3.65,5.15,7.86,5,12.31-.33,24.64.06,37-.21,4.37-.1,5.93.84,5.86,5.63C647.81,640.69,648,660.84,648,681ZM612,638.7a11.94,11.94,0,1,0,23.88.32c.11-6.42-5.42-11.89-12-11.94A12.13,12.13,0,0,0,612,638.7Z" transform="translate(-137.6 -272.62)"/><path class="cls-3" d="M584.22,684.14,531,630.89c15.4-3.08,29.18.8,40.47,11.78C583.09,654,587.08,668.09,584.22,684.14Z" transform="translate(-137.6 -272.62)"/><path class="cls-3" d="M303.63,895.11v32.71h-6.91V895.11Z" transform="translate(-137.6 -272.62)"/><path class="cls-3" d="M309.21,927.82V903.29h6.48v4.33H316a6.81,6.81,0,0,1,2.55-3.41,8,8,0,0,1,8.58,0,6,6,0,0,1,2.36,3.4h.26a6.53,6.53,0,0,1,2.72-3.38,8.44,8.44,0,0,1,4.67-1.27,7.53,7.53,0,0,1,5.59,2.18,8.42,8.42,0,0,1,2.15,6.17v16.5h-6.79V912.66A4,4,0,0,0,337,909.6a3.8,3.8,0,0,0-2.71-1,3.65,3.65,0,0,0-2.89,1.17,4.45,4.45,0,0,0-1,3.09v15h-6.6v-15.3a3.94,3.94,0,0,0-1-2.87,3.57,3.57,0,0,0-2.71-1.07,3.71,3.71,0,0,0-2,.56,4,4,0,0,0-1.43,1.58,5.11,5.11,0,0,0-.53,2.37v14.73Z" transform="translate(-137.6 -272.62)"/><path class="cls-3" d="M357.22,928.28a10.14,10.14,0,0,1-4.19-.82,6.66,6.66,0,0,1-2.9-2.44,7.3,7.3,0,0,1-1.06-4,7.13,7.13,0,0,1,.75-3.43,6,6,0,0,1,2.05-2.24,10,10,0,0,1,2.94-1.28,22.35,22.35,0,0,1,3.48-.61c1.42-.14,2.57-.29,3.45-.42a4.75,4.75,0,0,0,1.9-.6,1.33,1.33,0,0,0,.59-1.18v-.1a2.94,2.94,0,0,0-1-2.34,3.92,3.92,0,0,0-2.69-.83,4.87,4.87,0,0,0-2.93.8,3.78,3.78,0,0,0-1.43,2l-6.3-.51a8.57,8.57,0,0,1,1.89-3.87,9.19,9.19,0,0,1,3.63-2.52,13.76,13.76,0,0,1,5.17-.89,15.77,15.77,0,0,1,3.92.48,10.44,10.44,0,0,1,3.34,1.48,7.35,7.35,0,0,1,2.31,2.58,7.91,7.91,0,0,1,.84,3.76v16.55h-6.45v-3.4h-.19a6.87,6.87,0,0,1-1.58,2,7.3,7.3,0,0,1-2.38,1.36A9.85,9.85,0,0,1,357.22,928.28Zm1.95-4.69a5.66,5.66,0,0,0,2.65-.6,4.64,4.64,0,0,0,1.8-1.62,4.17,4.17,0,0,0,.66-2.32v-2.6a3.6,3.6,0,0,1-.87.37,10.68,10.68,0,0,1-1.24.31l-1.38.24-1.24.18a8.24,8.24,0,0,0-2.09.56,3.4,3.4,0,0,0-1.39,1,2.58,2.58,0,0,0-.5,1.61,2.43,2.43,0,0,0,1,2.11A4.26,4.26,0,0,0,359.17,923.59Z" transform="translate(-137.6 -272.62)"/><path class="cls-3" d="M387.37,937.53a15.89,15.89,0,0,1-5.66-.9,9.53,9.53,0,0,1-3.75-2.45,7.61,7.61,0,0,1-1.8-3.48l6.29-.85a4.1,4.1,0,0,0,.91,1.37,4.48,4.48,0,0,0,1.66,1,7.08,7.08,0,0,0,2.51.39,6,6,0,0,0,3.67-1.07,4.22,4.22,0,0,0,1.44-3.61v-4.48h-.28a6.59,6.59,0,0,1-3.65,3.41,8.66,8.66,0,0,1-3.35.58,9.93,9.93,0,0,1-5-1.29,9,9,0,0,1-3.6-3.94,15,15,0,0,1-1.33-6.73,15.86,15.86,0,0,1,1.36-7,9.7,9.7,0,0,1,3.61-4.18,9.27,9.27,0,0,1,5-1.39,7.68,7.68,0,0,1,3.45.69,6.88,6.88,0,0,1,2.25,1.73,9.66,9.66,0,0,1,1.32,2h.25v-4.12h6.76v24.77a8.63,8.63,0,0,1-1.54,5.24,9.22,9.22,0,0,1-4.24,3.17A16.89,16.89,0,0,1,387.37,937.53Zm.15-15.17a4.69,4.69,0,0,0,2.78-.82,5.22,5.22,0,0,0,1.76-2.37,10,10,0,0,0,.62-3.7,10.58,10.58,0,0,0-.61-3.74,5.51,5.51,0,0,0-1.76-2.47,4.51,4.51,0,0,0-2.79-.88,4.41,4.41,0,0,0-2.83.91,5.43,5.43,0,0,0-1.74,2.5,10.41,10.41,0,0,0-.59,3.68,10.12,10.12,0,0,0,.6,3.67,5.2,5.2,0,0,0,1.74,2.38A4.62,4.62,0,0,0,387.52,922.36Z" transform="translate(-137.6 -272.62)"/><path class="cls-3" d="M416,928.3a13,13,0,0,1-6.51-1.54,10.42,10.42,0,0,1-4.19-4.38,15.91,15.91,0,0,1,0-13.36,10.85,10.85,0,0,1,4.14-4.45,12,12,0,0,1,6.29-1.6,13.08,13.08,0,0,1,4.52.77,10.21,10.21,0,0,1,3.68,2.33,10.6,10.6,0,0,1,2.45,3.89,15.42,15.42,0,0,1,.88,5.47v1.87H406.52v-4.22h14.31a5.14,5.14,0,0,0-.64-2.6,4.66,4.66,0,0,0-1.76-1.79,5.15,5.15,0,0,0-2.61-.64,5.28,5.28,0,0,0-2.74.71,5.14,5.14,0,0,0-1.86,1.9,5.35,5.35,0,0,0-.69,2.64v4a6.87,6.87,0,0,0,.68,3.15,4.81,4.81,0,0,0,1.93,2,5.78,5.78,0,0,0,2.95.72,6.26,6.26,0,0,0,2.08-.32,4.29,4.29,0,0,0,1.61-1,4,4,0,0,0,1-1.56l6.29.41a8.54,8.54,0,0,1-1.95,4,10,10,0,0,1-3.8,2.62A14.37,14.37,0,0,1,416,928.3Z" transform="translate(-137.6 -272.62)"/><path class="cls-3" d="M438.48,913.64v14.18h-6.8V903.29h6.48v4.33h.29a6.87,6.87,0,0,1,2.73-3.4,8.37,8.37,0,0,1,4.65-1.25,8.61,8.61,0,0,1,4.46,1.12,7.57,7.57,0,0,1,2.95,3.18,10.77,10.77,0,0,1,1.05,4.93v15.62h-6.8V913.41a5,5,0,0,0-1.15-3.52,4.17,4.17,0,0,0-3.21-1.27,4.87,4.87,0,0,0-2.42.59,4.11,4.11,0,0,0-1.63,1.72A5.92,5.92,0,0,0,438.48,913.64Z" transform="translate(-137.6 -272.62)"/><path class="cls-3" d="M476.88,913.64v14.18h-6.8V903.29h6.48v4.33h.29a6.87,6.87,0,0,1,2.73-3.4,8.37,8.37,0,0,1,4.65-1.25,8.55,8.55,0,0,1,4.45,1.12,7.59,7.59,0,0,1,3,3.18,10.77,10.77,0,0,1,1.05,4.93v15.62h-6.8V913.41a5,5,0,0,0-1.15-3.52,4.17,4.17,0,0,0-3.21-1.27,4.85,4.85,0,0,0-2.42.59,4.11,4.11,0,0,0-1.63,1.72A5.92,5.92,0,0,0,476.88,913.64Z" transform="translate(-137.6 -272.62)"/><path class="cls-3" d="M509.13,928.3a12.46,12.46,0,0,1-6.43-1.59,10.72,10.72,0,0,1-4.18-4.44,15.71,15.71,0,0,1,0-13.27,10.72,10.72,0,0,1,4.18-4.44,13.8,13.8,0,0,1,12.86,0,10.76,10.76,0,0,1,4.17,4.44,15.71,15.71,0,0,1,0,13.27,10.76,10.76,0,0,1-4.17,4.44A12.49,12.49,0,0,1,509.13,928.3Zm0-5.27a4.19,4.19,0,0,0,2.83-1,6,6,0,0,0,1.71-2.64,12.63,12.63,0,0,0,0-7.63,6.08,6.08,0,0,0-1.71-2.66,4.19,4.19,0,0,0-2.83-1,4.3,4.3,0,0,0-2.87,1,6,6,0,0,0-1.74,2.66,12.84,12.84,0,0,0,0,7.63,5.83,5.83,0,0,0,1.74,2.64A4.3,4.3,0,0,0,509.16,923Z" transform="translate(-137.6 -272.62)"/><path class="cls-3" d="M547.25,928.3a13,13,0,0,1-6.51-1.54,10.48,10.48,0,0,1-4.19-4.38,15.91,15.91,0,0,1,0-13.36,10.81,10.81,0,0,1,4.15-4.45A12,12,0,0,1,547,903a13.14,13.14,0,0,1,4.53.77,10.17,10.17,0,0,1,3.67,2.33,10.47,10.47,0,0,1,2.45,3.89,15.42,15.42,0,0,1,.88,5.47v1.87H537.8v-4.22h14.31a5.24,5.24,0,0,0-.64-2.6,4.75,4.75,0,0,0-1.77-1.79,5.15,5.15,0,0,0-2.61-.64,5.3,5.3,0,0,0-2.74.71,5.14,5.14,0,0,0-1.86,1.9,5.46,5.46,0,0,0-.69,2.64v4a6.87,6.87,0,0,0,.68,3.15,4.94,4.94,0,0,0,1.93,2,5.78,5.78,0,0,0,3,.72,6.26,6.26,0,0,0,2.08-.32,4.2,4.2,0,0,0,2.64-2.52l6.29.41a8.56,8.56,0,0,1-2,4,9.9,9.9,0,0,1-3.8,2.62A14.33,14.33,0,0,1,547.25,928.3Z" transform="translate(-137.6 -272.62)"/><path class="cls-3" d="M569.76,913.64v14.18H563V903.29h6.49v4.33h.28a7,7,0,0,1,2.74-3.4A8.31,8.31,0,0,1,577.1,903a8.59,8.59,0,0,1,4.46,1.12,7.51,7.51,0,0,1,3,3.18,10.64,10.64,0,0,1,1.06,4.93v15.62h-6.81V913.41a5,5,0,0,0-1.14-3.52,4.18,4.18,0,0,0-3.22-1.27,4.9,4.9,0,0,0-2.42.59,4.08,4.08,0,0,0-1.62,1.72A5.92,5.92,0,0,0,569.76,913.64Z" transform="translate(-137.6 -272.62)"/><path class="cls-3" d="M602,928.3a12.44,12.44,0,0,1-6.47-1.6,10.66,10.66,0,0,1-4.15-4.47,15.7,15.7,0,0,1,0-13.2,10.85,10.85,0,0,1,4.16-4.46A12.33,12.33,0,0,1,602,903a12.85,12.85,0,0,1,5.62,1.16,9.41,9.41,0,0,1,3.82,3.28,9.51,9.51,0,0,1,1.55,5h-6.42a5,5,0,0,0-1.43-3,4.16,4.16,0,0,0-3-1.13,4.55,4.55,0,0,0-2.75.86,5.46,5.46,0,0,0-1.83,2.48,10.51,10.51,0,0,0-.66,3.94,11,11,0,0,0,.65,4,5.54,5.54,0,0,0,1.83,2.51,4.6,4.6,0,0,0,2.76.86,4.51,4.51,0,0,0,2.1-.48,4.08,4.08,0,0,0,1.55-1.4,5.35,5.35,0,0,0,.81-2.21H613a10.09,10.09,0,0,1-1.52,4.94,9.32,9.32,0,0,1-3.77,3.33A12.48,12.48,0,0,1,602,928.3Z" transform="translate(-137.6 -272.62)"/><path class="cls-3" d="M628.42,928.3a12.49,12.49,0,0,1-6.43-1.59,10.7,10.7,0,0,1-4.17-4.44,15.71,15.71,0,0,1,0-13.27,10.7,10.7,0,0,1,4.17-4.44,13.8,13.8,0,0,1,12.86,0A10.79,10.79,0,0,1,639,909a15.71,15.71,0,0,1,0,13.27,10.79,10.79,0,0,1-4.18,4.44A12.49,12.49,0,0,1,628.42,928.3Zm0-5.27a4.19,4.19,0,0,0,2.83-1,5.88,5.88,0,0,0,1.72-2.64,12.84,12.84,0,0,0,0-7.63,6,6,0,0,0-1.72-2.66,4.19,4.19,0,0,0-2.83-1,4.27,4.27,0,0,0-2.86,1,5.79,5.79,0,0,0-1.74,2.66,12.63,12.63,0,0,0,0,7.63,5.67,5.67,0,0,0,1.74,2.64A4.27,4.27,0,0,0,628.45,923Z" transform="translate(-137.6 -272.62)"/><path class="cls-3" d="M651.74,913.64v14.18h-6.8V903.29h6.48v4.33h.29a6.87,6.87,0,0,1,2.73-3.4,8.37,8.37,0,0,1,4.65-1.25,8.55,8.55,0,0,1,4.45,1.12,7.53,7.53,0,0,1,3,3.18,10.77,10.77,0,0,1,1,4.93v15.62h-6.8V913.41a5,5,0,0,0-1.15-3.52,4.17,4.17,0,0,0-3.21-1.27,4.87,4.87,0,0,0-2.42.59,4.11,4.11,0,0,0-1.63,1.72A5.92,5.92,0,0,0,651.74,913.64Z" transform="translate(-137.6 -272.62)"/><path class="cls-3" d="M686,903.29v5.11H671.18v-5.11Zm-11.42-5.88h6.81v22.87a3.05,3.05,0,0,0,.28,1.46,1.59,1.59,0,0,0,.81.73,3.23,3.23,0,0,0,1.21.21,5.2,5.2,0,0,0,1-.09l.73-.13,1.07,5.06c-.34.1-.82.23-1.44.37a12.16,12.16,0,0,1-2.25.27,10.3,10.3,0,0,1-4.3-.66,6,6,0,0,1-2.87-2.33,7.12,7.12,0,0,1-1-4Z" transform="translate(-137.6 -272.62)"/><path class="cls-3" d="M690.38,927.82V903.29H697v4.28h.26a6.42,6.42,0,0,1,2.25-3.46,6,6,0,0,1,3.64-1.17,10.86,10.86,0,0,1,1.1.06,6.56,6.56,0,0,1,1,.18v6a9.21,9.21,0,0,0-1.32-.25,11.05,11.05,0,0,0-1.55-.11,5.5,5.5,0,0,0-2.68.64,4.78,4.78,0,0,0-1.85,1.8,5.15,5.15,0,0,0-.68,2.65v13.88Z" transform="translate(-137.6 -272.62)"/><path class="cls-3" d="M715.07,928.28a10.14,10.14,0,0,1-4.19-.82A6.66,6.66,0,0,1,708,925a7.3,7.3,0,0,1-1.06-4,7.13,7.13,0,0,1,.75-3.43,6.06,6.06,0,0,1,2.05-2.24,10,10,0,0,1,2.95-1.28,22.22,22.22,0,0,1,3.47-.61c1.43-.14,2.58-.29,3.45-.42a4.7,4.7,0,0,0,1.9-.6,1.33,1.33,0,0,0,.59-1.18v-.1a2.94,2.94,0,0,0-1-2.34,3.92,3.92,0,0,0-2.69-.83,4.82,4.82,0,0,0-2.92.8,3.74,3.74,0,0,0-1.44,2l-6.29-.51a8.56,8.56,0,0,1,1.88-3.87,9.19,9.19,0,0,1,3.63-2.52,13.76,13.76,0,0,1,5.17-.89,15.77,15.77,0,0,1,3.92.48,10.34,10.34,0,0,1,3.34,1.48,7.26,7.26,0,0,1,2.31,2.58,7.91,7.91,0,0,1,.84,3.76v16.55h-6.45v-3.4h-.19a6.71,6.71,0,0,1-1.58,2,7.19,7.19,0,0,1-2.38,1.36A9.85,9.85,0,0,1,715.07,928.28Zm1.95-4.69a5.66,5.66,0,0,0,2.65-.6,4.57,4.57,0,0,0,1.8-1.62,4.17,4.17,0,0,0,.66-2.32v-2.6a3.43,3.43,0,0,1-.87.37,10.68,10.68,0,0,1-1.24.31l-1.37.24-1.25.18a8.24,8.24,0,0,0-2.09.56,3.4,3.4,0,0,0-1.39,1,2.58,2.58,0,0,0-.5,1.61,2.43,2.43,0,0,0,1,2.11A4.26,4.26,0,0,0,717,923.59Z" transform="translate(-137.6 -272.62)"/><path class="cls-3" d="M743.21,928.22a9.19,9.19,0,0,1-5.05-1.44,9.88,9.88,0,0,1-3.58-4.27,16.27,16.27,0,0,1-1.32-6.92,16,16,0,0,1,1.36-7,9.71,9.71,0,0,1,3.62-4.2,9.16,9.16,0,0,1,5-1.4,7.66,7.66,0,0,1,3.44.69,7.05,7.05,0,0,1,2.24,1.73,9.52,9.52,0,0,1,1.3,2h.2v-12.3h6.79v32.71h-6.71v-3.93h-.28a8.69,8.69,0,0,1-1.35,2,6.84,6.84,0,0,1-2.26,1.66A7.89,7.89,0,0,1,743.21,928.22Zm2.16-5.41a4.41,4.41,0,0,0,2.79-.91,5.66,5.66,0,0,0,1.75-2.53,10.77,10.77,0,0,0,.62-3.82,10.93,10.93,0,0,0-.61-3.8,5.45,5.45,0,0,0-1.76-2.49,4.86,4.86,0,0,0-5.62,0,5.6,5.6,0,0,0-1.74,2.53,12.15,12.15,0,0,0,0,7.51,5.72,5.72,0,0,0,1.74,2.56A4.36,4.36,0,0,0,745.37,922.81Z" transform="translate(-137.6 -272.62)"/><path class="cls-3" d="M769.74,928.28a10.09,10.09,0,0,1-4.18-.82,6.61,6.61,0,0,1-2.9-2.44,7.22,7.22,0,0,1-1.06-4,7.13,7.13,0,0,1,.75-3.43,6,6,0,0,1,2-2.24,10,10,0,0,1,3-1.28,22.22,22.22,0,0,1,3.47-.61c1.43-.14,2.58-.29,3.45-.42a4.7,4.7,0,0,0,1.9-.6,1.33,1.33,0,0,0,.59-1.18v-.1a2.91,2.91,0,0,0-1-2.34,3.92,3.92,0,0,0-2.69-.83,4.84,4.84,0,0,0-2.92.8,3.74,3.74,0,0,0-1.44,2l-6.29-.51a8.56,8.56,0,0,1,1.88-3.87,9.15,9.15,0,0,1,3.64-2.52,13.67,13.67,0,0,1,5.16-.89,15.71,15.71,0,0,1,3.92.48,10.34,10.34,0,0,1,3.34,1.48,7.16,7.16,0,0,1,2.31,2.58,7.79,7.79,0,0,1,.85,3.76v16.55H777.1v-3.4h-.19a6.71,6.71,0,0,1-1.58,2A7.19,7.19,0,0,1,773,927.8,9.77,9.77,0,0,1,769.74,928.28Zm2-4.69a5.66,5.66,0,0,0,2.65-.6,4.67,4.67,0,0,0,1.81-1.62,4.24,4.24,0,0,0,.65-2.32v-2.6a3.28,3.28,0,0,1-.87.37,10.68,10.68,0,0,1-1.24.31c-.46.09-.91.17-1.37.24l-1.25.18a8.36,8.36,0,0,0-2.09.56,3.4,3.4,0,0,0-1.39,1,2.57,2.57,0,0,0-.49,1.61,2.42,2.42,0,0,0,1,2.11A4.3,4.3,0,0,0,771.69,923.59Z" transform="translate(-137.6 -272.62)"/></svg>