<svg width="196" height="43" viewBox="0 0 196 43" fill="none" xmlns="http://www.w3.org/2000/svg">
<path d="M196 26.5416C195.935 26.8992 195.885 27.2618 195.797 27.6145C195.377 29.3256 194.317 30.5848 192.877 31.5459C190.973 32.8027 188.79 33.5808 186.516 33.8134C183.56 34.1533 180.568 33.9853 177.67 33.3167C175.506 32.8728 173.509 31.8411 171.901 30.3364C170.471 28.9655 169.683 27.2544 169.353 25.3247C169.268 24.8279 169.426 24.6715 169.933 24.674C170.894 24.674 171.854 24.6938 172.814 24.6889C173.464 24.6889 174.112 24.6466 174.762 24.6442C175.864 24.6442 176.512 25.0539 176.915 26.0672C177.055 26.4167 177.266 26.7337 177.536 26.9982C177.805 27.2627 178.126 27.4692 178.48 27.6045C179.366 27.9467 180.296 28.1632 181.243 28.2478C183.125 28.4768 185.034 28.3632 186.876 27.9125C187.369 27.8189 187.827 27.592 188.199 27.2568C188.385 27.0862 188.528 26.8745 188.617 26.6389C188.706 26.4033 188.737 26.1502 188.71 25.9001C188.682 25.6501 188.595 25.41 188.457 25.1991C188.319 24.9883 188.133 24.8127 187.914 24.6864C187.098 24.238 186.206 23.9409 185.283 23.8097C183.721 23.5365 182.145 23.3353 180.578 23.082C178.445 22.7368 176.344 22.2699 174.392 21.2988C173.284 20.7686 172.339 19.9556 171.652 18.9431C170.965 17.9306 170.561 16.755 170.482 15.5366C170.403 14.3182 170.652 13.1007 171.202 12.009C171.752 10.9172 172.585 9.99034 173.614 9.32321C175.101 8.36164 176.775 7.7219 178.527 7.44565C181.559 6.87233 184.688 7.06361 187.626 8.00197C190.232 8.84389 192.359 10.3191 193.805 12.6785C194.338 13.555 194.726 14.5109 194.955 15.5097C194.978 15.6068 194.992 15.7057 194.997 15.8052C195.027 16.2423 194.865 16.4385 194.422 16.4609C194.092 16.4783 193.762 16.4609 193.422 16.4609H189.041C188.511 16.4609 188.249 16.2995 188.089 15.8152C187.549 14.1711 186.384 13.2323 184.708 12.9243C183.148 12.6387 181.563 12.5195 180.013 12.9591C179.365 13.1558 178.747 13.4354 178.172 13.7911C177.886 13.9619 177.661 14.2165 177.527 14.5197C177.392 14.823 177.356 15.1602 177.422 15.4849C177.453 15.775 177.57 16.0494 177.759 16.2728C177.948 16.4962 178.2 16.6586 178.482 16.7391C179.403 17.0644 180.346 17.3266 181.303 17.5239C183.088 17.8542 184.896 18.0677 186.686 18.3757C188.476 18.6837 190.254 19.0885 191.909 19.8658C193.607 20.673 194.962 21.8328 195.58 23.6656C195.728 24.1992 195.846 24.7407 195.932 25.2874C195.947 25.3644 195.967 25.4389 195.985 25.5134L196 26.5416Z" fill="#222222"/>
<path d="M57.9989 22.1904H60.9693C61.5119 22.1904 61.6144 22.2649 61.7795 22.7865C62.5621 25.2352 64.2098 26.7825 66.7177 27.3761C69.1136 27.9783 71.6229 27.9783 74.0188 27.3761C75.1665 27.078 76.2692 26.631 77.1243 25.7767C77.4059 25.5263 77.6263 25.2155 77.7688 24.8678C77.9112 24.5201 77.972 24.1448 77.9465 23.7703C77.9209 23.3957 77.8097 23.032 77.6213 22.7066C77.4329 22.3812 77.1723 22.1027 76.8593 21.8924C75.9053 21.2304 74.8244 20.7705 73.6838 20.5414C72.071 20.1738 70.4333 19.8907 68.8105 19.5728C66.4102 19.1009 64.0023 18.6688 61.7094 17.7846C60.4929 17.3494 59.3542 16.724 58.3364 15.9319C56.9761 14.8564 56.0751 13.3103 55.8135 11.6031C55.531 9.87704 55.606 8.18078 56.2711 6.54164C57.0837 4.53991 58.559 3.12429 60.3942 2.04643C62.122 1.03067 64.0223 0.501673 65.9951 0.226C68.9416 -0.216256 71.9503 0.000966847 74.8014 0.861789C77.7444 1.7658 80.2048 3.34533 81.95 5.93069C82.9701 7.45382 83.6692 9.16624 84.0053 10.9648C84.1204 11.5658 83.8903 11.8192 83.2727 11.8241C81.655 11.839 80.0372 11.8738 78.422 11.8664C77.1718 11.8664 76.2867 11.2777 76.0141 10.0707C75.6591 8.49867 74.6164 7.65178 73.2387 7.0905C70.8475 6.06925 68.1758 5.89391 65.67 6.59379C64.7655 6.83848 63.9616 7.35984 63.3722 8.08392C62.5096 9.127 62.6096 10.2843 63.6447 11.161C64.3707 11.7453 65.2217 12.1565 66.1326 12.3631C67.7454 12.7778 69.3831 13.1454 71.0009 13.4906C73.6788 14.0568 76.3567 14.6082 78.9021 15.6488C80.4685 16.2414 81.878 17.1818 83.0227 18.3981C84.968 20.5513 85.5031 23.0646 84.893 25.8487C84.2954 28.5806 82.6151 30.4705 80.2173 31.8092C78.0507 32.9997 75.6504 33.7106 73.1812 33.8929C70.3192 34.1395 67.4361 33.9544 64.6299 33.344C62.1029 32.843 59.7658 31.6547 57.8789 29.9117C56.3407 28.4459 55.2518 26.5774 54.7384 24.5225C54.5984 24.0059 54.4883 23.4794 54.3908 22.9529C54.2808 22.3817 54.4358 22.2078 55.0209 22.2078L57.9989 22.1904Z" fill="#222222"/>
<path d="M145.74 10.1651C145.847 10.0782 145.922 10.0211 145.99 9.95651C147.96 8.17546 150.501 7.14286 153.163 7.04083C155.612 6.93011 158.062 7.22129 160.415 7.90262C164.053 8.92087 166.365 11.3324 167.486 14.8838C168.235 17.2924 168.491 19.8261 168.236 22.3345C168.11 24.0496 167.712 25.7343 167.058 27.3264C165.713 30.4283 163.307 32.3158 160.099 33.272C157.976 33.8956 155.756 34.1254 153.548 33.95C152.473 33.8771 151.404 33.7327 150.348 33.5178C148.632 33.1475 147.091 32.2172 145.97 30.8754C145.907 30.8033 145.842 30.7338 145.72 30.6047V30.8952C145.72 34.0245 145.72 37.1529 145.72 40.2805C145.72 40.8766 145.765 41.4751 145.72 42.0662C145.672 42.7665 145.375 43.0124 144.67 43.005C143.669 43.005 142.654 42.9578 141.644 42.9503C141.117 42.9503 140.587 42.9975 140.056 43.005C139.281 43.005 138.994 42.7566 138.986 41.9842C138.974 40.6233 138.986 39.2523 138.986 37.9013C138.986 28.7238 138.986 19.5463 138.986 10.3688C138.986 9.74292 138.986 9.127 138.986 8.49122C138.986 7.78589 139.274 7.52761 139.986 7.54003C141.277 7.56486 142.564 7.57231 143.855 7.57976C144.152 7.57976 144.452 7.54251 144.752 7.54499C145.52 7.54499 145.83 7.91255 145.767 8.67748C145.73 9.12204 145.735 9.56907 145.725 10.0136C145.726 10.0644 145.731 10.1151 145.74 10.1651ZM153.911 13.4484C153.326 13.4806 152.733 13.4806 152.161 13.5601C151.576 13.636 150.999 13.7572 150.433 13.9227C148.225 14.5784 146.682 15.9443 145.995 18.1696C145.602 19.4461 145.647 20.7599 145.845 22.0638C146.185 24.2989 147.33 25.9381 149.47 26.7999C151.927 27.831 154.682 27.9195 157.202 27.0482C158.452 26.6335 159.542 26.03 160.322 24.9496C161.044 23.9416 161.502 22.7704 161.652 21.5422C162.017 18.7482 161.095 16.4758 158.744 14.8516C157.297 13.8408 155.659 13.4484 153.911 13.4484Z" fill="#222222"/>
<path d="M125.792 21.5248H115.503C115.403 21.5248 115.303 21.5248 115.203 21.5248C114.653 21.5546 114.398 21.8278 114.52 22.3643C114.94 24.2393 115.88 25.7692 117.698 26.5863C120.916 28.0292 124.129 27.9522 127.307 26.4273C127.821 26.1992 128.245 25.8101 128.515 25.3197C129.015 24.3884 129.91 24.1648 130.888 24.1698C132.255 24.1698 133.625 24.1946 134.993 24.2046C135.283 24.2046 135.573 24.1847 135.863 24.1897C136.363 24.1897 136.528 24.3735 136.386 24.8627C136.216 25.4844 136.009 26.0956 135.766 26.6931C134.548 29.5889 132.405 31.5459 129.482 32.6784C124.794 34.4964 120.073 34.4914 115.36 32.8274C111.797 31.5782 109.467 29.0947 108.384 25.4786C107.38 22.2608 107.376 18.817 108.372 15.5966C109.622 11.5584 112.325 9.03015 116.388 7.89765C118.483 7.29334 120.655 6.99222 122.836 7.00358C125.768 7.01568 128.649 7.77321 131.203 9.204C132.953 10.1974 134.241 11.6403 135.238 13.3515C136.461 15.4551 137.158 17.7051 137.058 20.1589C137.047 20.4567 137.012 20.7532 136.953 21.0455C136.948 21.1206 136.927 21.1937 136.891 21.2602C136.855 21.3267 136.806 21.3851 136.747 21.4318C136.688 21.4785 136.619 21.5124 136.546 21.5314C136.472 21.5504 136.396 21.5541 136.321 21.5422H125.792V21.5248ZM115.348 16.7167H128.177C128.367 16.7167 128.557 16.7316 128.745 16.7167C128.995 16.7167 129.11 16.5578 129.03 16.3193C128.999 16.2147 128.944 16.1186 128.87 16.0387C128.497 15.6389 128.089 15.2724 127.652 14.9435C126.268 14.0386 124.662 13.5237 123.006 13.4533C121.222 13.3824 119.444 13.7029 117.798 14.3921C116.715 14.8321 115.84 15.6625 115.348 16.7167Z" fill="#222222"/>
<path d="M90.0838 19.7069C90.0838 17.9783 90.0838 16.2498 90.0838 14.5213C90.0859 14.3237 90.0742 14.1262 90.0488 13.9302C89.9838 13.4732 89.8588 13.3292 89.4012 13.3018C88.7936 13.2646 88.1835 13.2646 87.5734 13.2596C86.7808 13.2596 86.6983 13.1777 86.6958 12.3929C86.6958 11.0517 86.6891 9.71146 86.6758 8.37201C86.6758 7.82811 86.8633 7.60956 87.4134 7.56734C87.9635 7.52512 88.511 7.52016 89.0586 7.468C89.7012 7.40591 89.9888 7.14017 90.0238 6.50439C90.0788 5.54574 90.0838 4.58213 90.0913 3.61852C90.0913 2.89332 90.0913 2.16813 90.0763 1.44542C90.0613 0.722709 90.3113 0.452003 91.0764 0.452003H95.7522C96.5773 0.452003 96.7848 0.658136 96.7773 1.46777C96.7673 3.19631 96.7581 4.92403 96.7498 6.65092C96.7498 7.34879 96.9698 7.59218 97.6775 7.59218C100.385 7.59218 103.096 7.56486 105.804 7.55493C105.972 7.55497 106.139 7.57077 106.304 7.60211C106.441 7.61546 106.568 7.6768 106.663 7.77512C106.759 7.87344 106.816 8.0023 106.824 8.13856C106.849 8.54089 106.824 8.94819 106.824 9.35301C106.836 10.3266 106.841 11.2976 106.864 12.2712C106.881 12.9492 106.634 13.2472 105.944 13.2795C105.586 13.2969 105.226 13.2795 104.866 13.2795H97.7275C96.9498 13.2795 96.7273 13.498 96.7273 14.2729C96.7273 17.3426 96.7273 20.4097 96.7448 23.4769C96.7429 24.0227 96.794 24.5675 96.8973 25.1036C97.1474 26.3851 97.8975 27.1103 99.1852 27.2742C100.089 27.3724 100.997 27.4172 101.906 27.4083C103.206 27.4232 104.503 27.3934 105.804 27.3785C106.554 27.3785 106.864 27.6641 106.859 28.4167C106.859 29.824 106.852 31.2313 106.839 32.6387C106.839 33.3564 106.604 33.5899 105.889 33.5899C104.001 33.5899 102.111 33.6246 100.223 33.5899C98.8948 33.5878 97.5687 33.4907 96.2547 33.2993C94.7669 33.079 93.391 32.3856 92.3334 31.3231C91.2759 30.2605 90.5936 28.8861 90.3888 27.4059C90.1998 25.9501 90.0921 24.485 90.0663 23.0174C90.0188 21.9297 90.0663 20.8344 90.0663 19.7441L90.0838 19.7069Z" fill="#222222"/>
<path d="M0.0225075 17.0023C0.0225075 13.4657 0.0225075 9.92919 0.0225075 6.39263C0.0225075 4.86277 0.0225076 3.33291 0.00500488 1.80305C0.00500488 1.72357 0.00500488 1.64079 0.00500488 1.55469C0.0200072 0.71774 0.285048 0.452 1.13268 0.454483C4.78324 0.466901 8.4313 0.466901 12.0819 0.501671C13.5821 0.514089 15.0823 0.538925 16.5825 0.665586C20.2506 0.988446 22.9435 3.26585 23.8512 6.83966C24.4387 9.16426 24.5038 11.5038 23.6511 13.7936C22.9094 15.8259 21.4126 17.4993 19.468 18.4701C19.1941 18.5889 18.9105 18.6845 18.6204 18.7557C18.4503 18.8103 18.2703 18.8376 18.1053 18.9022C17.6052 19.0935 17.4702 19.3567 17.6952 19.8335C18.0653 20.6233 18.4878 21.3907 18.8879 22.1656C20.5548 25.3942 22.2267 28.6228 23.9037 31.8514C24.0491 32.0995 24.2112 32.3376 24.3887 32.5642C24.4749 32.6552 24.5329 32.7689 24.5559 32.8917C24.579 33.0145 24.5661 33.1413 24.5188 33.2571C24.4569 33.378 24.3607 33.4782 24.242 33.5453C24.1233 33.6124 23.9874 33.6435 23.8512 33.6346C23.2166 33.6628 22.5915 33.4734 22.0809 33.0981C21.9293 32.9862 21.8061 32.8408 21.7208 32.6734C19.6055 28.569 17.496 24.4612 15.3924 20.3501C15.2759 20.0651 15.0712 19.8243 14.8077 19.6627C14.5443 19.501 14.2358 19.4269 13.9271 19.4511C11.9768 19.4834 10.0265 19.4933 8.07874 19.4958C6.5185 19.4958 4.95826 19.4685 3.39803 19.4585C2.66541 19.4585 2.42288 19.6895 2.42288 20.4197C2.42288 23.837 2.42954 27.2544 2.44288 30.6717C2.44288 31.2976 2.47538 31.9135 2.45788 32.5468C2.44038 33.2149 2.20784 33.4458 1.54524 33.5402C1.32737 33.5696 1.10713 33.578 0.887641 33.565C0.305051 33.5327 0.0400105 33.2645 0.0150066 32.6809C-0.00249604 32.2935 0.0150066 31.906 0.0150066 31.5186V20.2235C0.0216743 19.1506 0.0241744 18.0769 0.0225075 17.0023ZM2.42038 9.82984V16.287C2.42038 17.1315 2.5929 17.3078 3.42053 17.3053L8.87886 17.2854C11.0267 17.2854 13.177 17.3053 15.3249 17.2333C17.7702 17.1513 19.688 16.0685 20.8832 13.9178C22.1509 11.6354 22.2209 9.23628 21.3008 6.81731C20.3331 4.26672 18.4703 2.87345 15.7074 2.74431C14.1222 2.67146 12.5386 2.62593 10.9567 2.60772C8.35878 2.5804 5.75839 2.58785 3.16049 2.58288C2.5704 2.58288 2.43038 2.72196 2.43038 3.29814L2.42038 9.82984Z" fill="#222222"/>
<path d="M37.7983 31.6204C39.9211 31.5658 41.6989 31.4664 43.3991 30.8754C45.7295 30.0707 47.4798 28.6029 48.4649 26.3255C48.6544 25.8043 48.804 25.2697 48.9125 24.7261C48.935 24.6417 48.94 24.5498 48.96 24.4629C49.1575 23.5663 49.6276 23.2012 50.5502 23.2211C50.7175 23.225 50.8844 23.2375 51.0503 23.2583C51.4429 23.3155 51.5929 23.5067 51.5229 23.8991C51.2843 25.3402 50.8141 26.7339 50.1302 28.0267C48.8846 30.4004 46.7502 32.1931 44.1868 33.0187C40.4087 34.2952 36.6106 34.3945 32.81 33.0807C28.8769 31.7322 26.4615 29.0003 25.5239 24.9844C24.9488 22.5183 24.7413 20.0173 25.1588 17.5065C25.6589 14.4865 26.9091 11.844 29.2945 9.82488C30.8397 8.51606 32.67 7.79086 34.6453 7.43323C37.1632 6.97875 39.6961 6.88189 42.2115 7.41833C45.6495 8.15098 48.3799 9.92174 50.1377 13.0137C50.9532 14.5216 51.4549 16.177 51.6129 17.8815C51.6904 18.5322 51.7229 19.1878 51.7654 19.841C51.8079 20.4942 51.6379 20.5861 51.0153 20.5463C50.5877 20.5116 50.1577 20.5314 49.7276 20.5314H40.6037C38.4934 20.5314 36.3831 20.5513 34.2752 20.5488C32.3549 20.5488 30.4347 20.524 28.5244 20.514C28.3567 20.5123 28.1892 20.5264 28.0243 20.5563C27.9407 20.5625 27.8591 20.5852 27.7844 20.623C27.7097 20.6609 27.6433 20.7131 27.5891 20.7766C27.5349 20.8402 27.4939 20.9138 27.4686 20.9932C27.4433 21.0726 27.4342 21.1563 27.4417 21.2392C27.4792 23.4595 27.8142 25.6177 29.0294 27.5375C30.2446 29.4573 32.1024 30.6022 34.3077 31.1833C34.7999 31.3156 35.3014 31.4111 35.808 31.4689C36.5806 31.5559 37.3532 31.5782 37.7983 31.6204ZM38.4784 18.4154V18.4353H48.6049C49.1525 18.4353 49.2975 18.2888 49.2075 17.7499C49.1124 17.1728 48.9881 16.6008 48.835 16.0362C48.3999 14.4915 47.6848 13.1007 46.4871 11.9905C45.1794 10.7786 43.5942 10.1428 41.8714 9.80501C39.8026 9.4345 37.6894 9.3759 35.6029 9.63117C34.0787 9.76732 32.6151 10.2898 31.3523 11.1486C29.1019 12.7182 28.0793 15.0031 27.6167 17.6058C27.5042 18.2416 27.6992 18.4328 28.3543 18.4452H28.5644C29.702 18.4154 30.8522 18.4154 32.0024 18.4154C34.1611 18.4072 36.3197 18.4072 38.4784 18.4154Z" fill="#222222"/>
</svg>
