<svg id="Capa_1" data-name="Capa 1" xmlns="http://www.w3.org/2000/svg" viewBox="0 0 626.67 477.1"><defs><style>.cls-1{fill:#f8f3f7;}.cls-2{fill:#343233;}.cls-3{fill:#e0485d;}.cls-4{fill:#ed5166;}.cls-5{fill:#f8f8f8;}</style></defs><path class="cls-1" d="M558.49,397.29c17.36-1.34,34.35,1.29,51.34,4.52,16.46,3.12,32.24,8.59,48,14,6.9,2.37,13.46,6.34,20.39,8.86,15.39,5.59,28.07,15.63,41.89,23.84a176.12,176.12,0,0,1,30.78,23.25c17.73,16.67,34.84,33.82,49.61,53.44,11.32,15,19.33,31.62,27.62,48.1,4.35,8.65,6.74,18.47,9.93,27.79,5.55,16.26,7.87,32.95,10.23,49.85a280.91,280.91,0,0,1,2.54,49.63c-.72,18.73-2.95,37.56-10.51,54.78a289.12,289.12,0,0,1-17,32.3c-4.84,8.08-10.38,15.64-15.63,23.37-5.55,8.18-13.78,14.19-21.27,20.69-9.17,8-20.43,11.92-31.53,16.19-7.26,2.79-14.43,5.84-21.55,9-3.13,1.36-6.49,1.14-9.67,2.09-18.43,5.55-37.37,8.2-56.47,10.16-10.53,1.09-21.14,2-31.64,2.39-11.85.49-23.74,1.16-35.59,1.69-20.14.89-40.25.43-60.37.77-10.13.18-20.18-.8-30.27-1.56-3.17-.24-6.48-.41-9.72-.4-19.73.06-39.39-1.85-59.11-2.25-16.54-.32-33.13-1.64-49.57-3.2-17.44-1.66-34.73-5-51.17-12.75-14-6.6-27.3-14-39.21-23.49a248.85,248.85,0,0,1-25.2-23.05c-5.46-5.76-9-12.94-15.19-18.12-3.27-2.73-5.13-7.22-7.36-11.06-5.94-10.24-14.3-19.2-17.76-30.72-2.75-9.15-6-18.14-8.26-27.49-3.94-16-2.33-31.36.08-47.11,1-6.65.53-13.54,1.95-20.24,1.56-7.39,2.82-14.84,4.48-22.21,4.16-18.41,11-35.8,18.69-53.06,6.17-13.88,14.32-26.32,22.92-38.54,7.4-10.5,15.14-20.86,25.64-28.69a17.08,17.08,0,0,0,3.61-4.09c6.27-9.21,15.17-15.45,24.13-21.63,1.1-.76,2.49-1.29,3.24-2.3,2.61-3.54,6.44-5.44,9.78-8a247,247,0,0,1,34.28-22.58c8-4.32,16-8.63,23.89-13.14,15-8.61,31.53-13.59,47.24-20.45,10.42-4.55,21.84-7.34,33.11-10.13,9.23-2.28,18.54-4.5,27.82-6.42C524.29,397.79,541.31,396.05,558.49,397.29ZM738.63,660.82c6.67,2.62,14.15,9.38,19.24,16.65,9.62,13.74,13.49,29.49,16.23,45.66q1,5.91,2,11.8c.15.83.38,1.74,1.41,1.77,1.49,0,1.35-1.22,1.4-2.14a18.52,18.52,0,0,0-.17-3.49c-1.41-9.21-2.69-18.46-5.22-27.44-5.31-18.88-13.82-35.66-31.75-45.86a5.71,5.71,0,0,1-3.22-5.23q0-32.24,0-64.46c0-2.93,1.15-4.23,4.18-4.12,4.33.15,8.67.06,13,0,5.14,0,5.75-.75,3.73-5.46-6.36-14.81-13-29.49-19.2-44.37-1.58-3.81-3.81-4.9-7.54-4.9q-128.19.06-256.38.06c-3,0-5.42.11-6.3-3.62-.57-2.42-3.07-2.21-5-2.27-33.8-1.16-67.6-2.35-101.36.67-3.43.31-7,.69-8.64,4.61-.72,1.77-2.16,1-3.41,1-7.67,0-15.33.21-23,0-3.77-.11-5.6,1.32-7.07,4.75-6.38,15-13,29.88-19.66,44.76-1.48,3.31-.68,4.72,2.89,4.68,4.16,0,8.34.13,12.48-.17,4.42-.32,6.06.93,6,5.81-.22,43-.09,86-.23,128.94,0,5.2,1.89,8.46,6.23,11.38,12.36,8.33,24.5,17,36.53,25.82,8,5.88,16,9.73,26.74,9.57,46-.7,91.95-.26,137.92-.38,3.89,0,5,.68,3.72,4.72-5.36,16.78-7.19,34.13-7.79,51.64-.06,1.7-.8,4.32,1.68,4.55,2.91.26,1.95-2.56,1.93-4.08-.28-18.15,2.86-35.76,7.79-53.15.74-2.63,1.84-3.69,4.32-3.69,11,0,22,0,33,.06,1.82,0,3.41.34,4.06,2.74,4.75,17.4,8.51,34.92,8,53.12-.05,2-1,5.67,1.11,5.58,3.08-.13,2.16-3.88,2.14-6.2a177.58,177.58,0,0,0-7.2-49.75c-1.64-5.47-1.51-5.54,4.36-5.5,48.47.29,96.94-.71,145.4.55,4,.11,5.78-1.18,5.65-5.41-.22-7.45,0-14.9,0-22.35Z" transform="translate(-224.32 -396.89)"/><path class="cls-2" d="M738.63,660.82v76.91c0,7.45-.17,14.9,0,22.35.13,4.23-1.64,5.52-5.65,5.41-48.46-1.26-96.93-.26-145.4-.55-5.87,0-6,0-4.36,5.5a177.58,177.58,0,0,1,7.2,49.75c0,2.32.94,6.07-2.14,6.2-2.15.09-1.16-3.62-1.11-5.58.47-18.2-3.29-35.72-8-53.12-.65-2.4-2.24-2.73-4.06-2.74-11-.08-22-.06-33-.06-2.48,0-3.58,1.06-4.32,3.69-4.93,17.39-8.07,35-7.79,53.15,0,1.52,1,4.34-1.93,4.08-2.48-.23-1.74-2.85-1.68-4.55.6-17.51,2.43-34.86,7.79-51.64,1.29-4,.17-4.73-3.72-4.72-46,.12-92-.32-137.92.38-10.76.16-18.71-3.69-26.74-9.57-12-8.81-24.17-17.49-36.53-25.82-4.34-2.92-6.25-6.18-6.23-11.38.14-43,0-86,.23-128.94,0-4.88-1.62-6.13-6-5.81-4.14.3-8.32.13-12.48.17-3.57,0-4.37-1.37-2.89-4.68,6.66-14.88,13.28-29.76,19.66-44.76,1.47-3.43,3.3-4.86,7.07-4.75,7.66.23,15.32,0,23,0,1.25,0,2.69.72,3.41-1,1.6-3.92,5.21-4.3,8.64-4.61,33.76-3,67.56-1.83,101.36-.67,1.94.06,4.44-.15,5,2.27.88,3.73,3.33,3.62,6.3,3.62q128.19-.08,256.38-.06c3.73,0,6,1.09,7.54,4.9,6.18,14.88,12.84,29.56,19.2,44.37,2,4.71,1.41,5.42-3.73,5.46-4.33,0-8.67.12-13,0-3-.11-4.19,1.19-4.18,4.12q.06,32.24,0,64.46a5.71,5.71,0,0,0,3.22,5.23c17.93,10.2,26.44,27,31.75,45.86,2.53,9,3.81,18.23,5.22,27.44a18.52,18.52,0,0,1,.17,3.49c0,.92.09,2.18-1.4,2.14-1,0-1.26-.94-1.41-1.77q-1-5.89-2-11.8c-2.74-16.17-6.61-31.92-16.23-45.66C752.78,670.2,745.3,663.44,738.63,660.82Zm-328.24,4.56c-7.44,7.11-14.08,14-23.63,16.22-3.84.88-4.59,2.56-4.57,6.07.13,22.65.24,45.3-.06,67.94-.08,5.21,1.31,6.56,6.5,6.61,49.23.54,98.46-.47,147.69.56,14.75.3,29.55-.13,44.32-.25,23.8-.21,47.61-.22,71.41-.15,26.47.09,52.94-.73,79.41.17,3,.1,4.61-1.1,4.48-4.42-.17-4.79,0-9.58,0-14.37q0-43,0-86,0-34.47-.08-68.94c0-3.15-.72-6.14-4.55-5.57-4.7.71-9.27-.18-13.89-.18q-119.16,0-238.33,0a22.12,22.12,0,0,0-6.91.82c-1.84.6-3.14,2-2.68,3.68,1.56,5.59-2,5.2-5.52,5.19-15.16,0-30.33.15-45.48-.12-3.85-.07-5.18,1.49-5.13,4.75.09,5.81.27,11.64.71,17.43,1.33,17.79.81,35.61.95,53.42,0,1.52.12,3.22-2.05,3.26-1.85,0-1.87-1.55-2.08-2.85C410.74,667.86,410.63,667.07,410.39,665.38Zm202.12-84.49V581H731.45c6.5,0,13,.09,19.49-.2,5.18-.24,5.41-1,3.39-5.53-4.56-10.27-9.21-20.51-13.52-30.9-5-12.05-4.85-12.11-17.95-12.1h-.5L503,532.29c-8.83,0-17.66.06-26.48.06-4.4,0-6.52,1.56-6.39,6.54.3,11.65.07,23.31,0,35-.07,7-.15,7,7,7Q544.81,580.91,612.51,580.89ZM377.56,758.74c.25-.36.41-.49.42-.63,1.84-23.93.43-47.89.75-71.83,0-3-1.77-4.37-4.87-4.29a21.38,21.38,0,0,1-10.36-2C355,675.78,350.11,669,347.43,660.3c-.51-1.64-.5-3.57,1.53-4.16s3,.71,3.19,2.73a15.22,15.22,0,0,0,.59,1.89c2.11,10,8.87,15.37,18.19,18,6.25,1.72,7.88.33,7.88-6.09q0-36,0-71.93c0-8.4,0-8.39-8.19-8.46a22.9,22.9,0,0,1-5-.23c-3.45-.81-7.8-.28-8-6-.07-2.15-2.61-3-5.08-3q-11.73.22-23.46.09c-3.15,0-3.52,1.74-3.41,4.18.14,3.32.29,6.65.29,10,0,40.28.11,80.56-.19,120.84a10.48,10.48,0,0,0,5.67,9.84c10.06,5.6,18.54,13.41,28.33,19.32C365.85,750.91,370.86,756.19,377.56,758.74Zm36.58-170.33V589c16,0,31.95,0,47.93,0,2.76,0,4.2-.37,4.21-3.72q.14-26.7.74-53.39c.08-3.89-1.33-5.1-5.21-5.22-18.23-.6-36.45-1.07-54.69-1-14.31.07-28.61.33-42.85,2-4.77.55-6.62,2.34-6.65,7.73a416.32,416.32,0,0,0,2.57,45.08c.81,7.74.55,7.85,8,7.87C383.53,588.44,398.84,588.41,414.14,588.41Zm-32,46.74h.08c0,13,.07,25.94-.05,38.91,0,3.1.44,4.05,3.89,3.08,9.83-2.78,16.25-9.45,21.67-17.58a12.11,12.11,0,0,0,2.28-7.4c-.21-8.31.07-16.64-.3-24.95-.48-10.6.93-21.24-.94-31.83-.4-2.3-.95-3.1-3.28-3.06-6.65.12-13.31.16-20,0-3.07-.08-3.47,1.3-3.44,3.94C382.25,609.22,382.18,622.18,382.18,635.15Zm-26.8-75.63h-.63c0-8-.11-15.93.06-23.89.05-2.34-.89-2.67-2.87-2.87-6.79-.7-13.6-.13-20.39-.49-3.84-.2-6.25.93-7.81,4.56-5.45,12.66-11.12,25.21-16.61,37.85-2.5,5.74-2.19,6.22,4.39,6.15,11.12-.12,22.24-.45,33.36-.71,2.49-.06,5-.2,7.47-.3s3.27-1.19,3.12-3.84C355.16,570.51,355.38,565,355.38,559.52Z" transform="translate(-224.32 -396.89)"/><path class="cls-3" d="M410.39,665.38c.24,1.69.35,2.48.47,3.27.21,1.3.23,2.88,2.08,2.85,2.17,0,2.06-1.74,2.05-3.26-.14-17.81.38-35.63-.95-53.42-.44-5.79-.62-11.62-.71-17.43-.05-3.26,1.28-4.82,5.13-4.75,15.15.27,30.32.09,45.48.12,3.53,0,7.08.4,5.52-5.19-.46-1.65.84-3.08,2.68-3.68a22.12,22.12,0,0,1,6.91-.82q119.16,0,238.33,0c4.62,0,9.19.89,13.89.18,3.83-.57,4.55,2.42,4.55,5.57q0,34.47.08,68.94,0,43,0,86c0,4.79-.13,9.58,0,14.37.13,3.32-1.5,4.52-4.48,4.42-26.47-.9-52.94-.08-79.41-.17-23.8-.07-47.61-.06-71.41.15-14.77.12-29.57.55-44.32.25-49.23-1-98.46,0-147.69-.56-5.19-.05-6.58-1.4-6.5-6.61.3-22.64.19-45.29.06-67.94,0-3.51.73-5.19,4.57-6.07C396.31,679.41,403,672.49,410.39,665.38ZM559,714.17c5.51.35,10.81.79,16.12,1,2.19.09,5.1.85,5.86-2.27s-1.14-5.36-3.79-6.85a32.91,32.91,0,0,0-12.75-3.9c-8.55-.91-16.9-.28-24.54,4.25-2.59,1.53-3.77,3.81-3,6.72s3.47,2.1,5.43,2C547.9,715,553.53,714.51,559,714.17Zm-63-43.78c0-5.71-2.76-9.07-7.48-9.09-5.43,0-7.35,2.26-7.37,8.76s1.91,8.82,7.21,8.76C492.94,678.77,496,675.45,496,670.39Zm96.76-40.21c-4.9-.12-8.2,3-8.34,7.89-.14,5.15,2.62,8.18,7.7,8.44a8.22,8.22,0,0,0,8.52-7.94C600.65,633.55,597.59,630.29,592.71,630.18Zm43.08,40.38c.06-4.65-3.51-9.46-6.93-9.33-4.08.17-7.7,4.25-7.72,8.7,0,4.77,4.19,10,7.94,9.84C632.11,679.65,635.74,674.68,635.79,670.56ZM518,638.22c0,5.17,2.61,7.79,7.62,7.73a7.39,7.39,0,0,0,7.55-7.52,7.55,7.55,0,0,0-8-7.61C520.26,630.83,518,633.18,518,638.22Z" transform="translate(-224.32 -396.89)"/><path class="cls-4" d="M612.51,580.89q-67.71,0-135.43,0c-7.15,0-7.07-.06-7-7,.11-11.66.34-23.32,0-35-.13-5,2-6.54,6.39-6.54,8.82,0,17.65-.06,26.48-.06l219.37-.07h.5c13.1,0,13,0,17.95,12.1,4.31,10.39,9,20.63,13.52,30.9,2,4.58,1.79,5.29-3.39,5.53-6.49.29-13,.19-19.49.2H612.51Z" transform="translate(-224.32 -396.89)"/><path class="cls-3" d="M377.56,758.74c-6.7-2.55-11.71-7.83-17.75-11.48-9.79-5.91-18.27-13.72-28.33-19.32a10.48,10.48,0,0,1-5.67-9.84c.3-40.28.2-80.56.19-120.84,0-3.32-.15-6.65-.29-10-.11-2.44.26-4.22,3.41-4.18q11.73.14,23.46-.09c2.47,0,5,.8,5.08,3,.19,5.75,4.54,5.22,8,6a22.9,22.9,0,0,0,5,.23c8.18.07,8.19.06,8.19,8.46q0,36,0,71.93c0,6.42-1.63,7.81-7.88,6.09-9.32-2.58-16.08-8-18.19-18a15.22,15.22,0,0,1-.59-1.89c-.16-2-1.14-3.33-3.19-2.73s-2,2.52-1.53,4.16C350.11,669,355,675.78,363.5,680a21.38,21.38,0,0,0,10.36,2c3.1-.08,4.91,1.27,4.87,4.29-.32,23.94,1.09,47.9-.75,71.83C378,758.25,377.81,758.38,377.56,758.74Z" transform="translate(-224.32 -396.89)"/><path class="cls-5" d="M414.14,588.41c-15.3,0-30.61,0-45.91,0-7.49,0-7.23-.13-8-7.87a416.32,416.32,0,0,1-2.57-45.08c0-5.39,1.88-7.18,6.65-7.73,14.24-1.65,28.54-1.91,42.85-2,18.24-.1,36.46.37,54.69,1,3.88.12,5.29,1.33,5.21,5.22q-.57,26.69-.74,53.39c0,3.35-1.45,3.73-4.21,3.72-16-.1-31.95,0-47.93,0ZM423,554.19a36.83,36.83,0,0,0-1.57-11.82,6.36,6.36,0,0,0-5.71-4.82c-2.75-.34-5.25-.35-6.81,2.65a12.66,12.66,0,0,1-3,3.27c-6.47,5.71-8.78,13.09-8.56,21.43.13,4.77,1.77,8.88,6.6,10.75s10.49.18,14.06-3.72C422.59,566.85,422.74,560.5,423,554.19Zm-31.67-11.11c-.38-1.23,1.21-3.68-1.27-3.9s-1.72,2.36-1.94,3.81c-.57,3.78-.89,7.6-1.43,11.39-.25,1.76.25,4.57-3,3.63-2.56-.73-7.07.86-6.18-4.65.55-3.44,1-6.91,1.36-10.38.17-1.52.95-3.5-1.68-3.85-2.78-.38-2.82,1.71-2.95,3.5-.27,3.48-.39,7-.56,10.47-.39,8.07.3,8.93,8.39,9.06,3.1.05,4.3,1.08,3.74,4.16-.5,2.78-.88,5.58-1.29,8.37-.21,1.44-.87,3.17,1.57,3.31,2,.12,2.49-1.27,2.51-2.93C388.72,564.41,390.4,553.87,391.29,543.08Zm42.76.49c-.49-.93.67-3-1.18-3.14-2-.18-1.78,1.92-2,3.33-.68,3.94-1.31,7.89-2.12,11.8-.86,4.12.86,7.17,4.8,7,6.69-.3,6.12,3.46,5.46,7.76-.18,1.15-.51,2.28-.6,3.43s-.5,3,1.48,3c1.69,0,2-1.5,2.05-2.88.52-9.8,1.19-19.58,3.1-29.25.21-1,.84-3.09-1-3.28-1.6-.15-1.77,1.75-2,3-.6,3.78-1.3,7.56-1.52,11.37s-2.57,3.74-5.18,3.46c-2.78-.29-3.43-1.79-2.82-4.54C433.31,551.12,433.54,547.43,434.05,543.57Z" transform="translate(-224.32 -396.89)"/><path class="cls-3" d="M382.18,635.15c0-13,.07-25.93-.05-38.9,0-2.64.37-4,3.44-3.94,6.65.17,13.31.13,20,0,2.33,0,2.88.76,3.28,3.06,1.87,10.59.46,21.23.94,31.83.37,8.31.09,16.64.3,24.95a12.11,12.11,0,0,1-2.28,7.4c-5.42,8.13-11.84,14.8-21.67,17.58-3.45,1-3.92,0-3.89-3.08.12-13,.05-25.94.05-38.91Z" transform="translate(-224.32 -396.89)"/><path class="cls-4" d="M355.38,559.52c0,5.49-.22,11,.09,16.46.15,2.65-.62,3.74-3.12,3.84s-5,.24-7.47.3c-11.12.26-22.24.59-33.36.71-6.58.07-6.89-.41-4.39-6.15,5.49-12.64,11.16-25.19,16.61-37.85,1.56-3.63,4-4.76,7.81-4.56,6.79.36,13.6-.21,20.39.49,2,.2,2.92.53,2.87,2.87-.17,8-.06,15.93-.06,23.89Z" transform="translate(-224.32 -396.89)"/><path class="cls-2" d="M559,714.17c-5.43.34-11.06.8-16.69,1-2,.06-4.65,1-5.43-2s.43-5.19,3-6.72c7.64-4.53,16-5.16,24.54-4.25a32.91,32.91,0,0,1,12.75,3.9c2.65,1.49,4.57,3.67,3.79,6.85s-3.67,2.36-5.86,2.27C569.77,715,564.47,714.52,559,714.17Z" transform="translate(-224.32 -396.89)"/><path class="cls-1" d="M496,670.39c0,5.06-3,8.38-7.64,8.43-5.3.06-7.22-2.27-7.21-8.76s1.94-8.78,7.37-8.76C493.19,661.32,496,664.68,496,670.39Z" transform="translate(-224.32 -396.89)"/><path class="cls-2" d="M592.71,630.18c4.88.11,7.94,3.37,7.88,8.39a8.22,8.22,0,0,1-8.52,7.94c-5.08-.26-7.84-3.29-7.7-8.44C584.51,633.18,587.81,630.06,592.71,630.18Z" transform="translate(-224.32 -396.89)"/><path class="cls-1" d="M635.79,670.56c0,4.12-3.68,9.09-6.71,9.21-3.75.14-8-5.07-7.94-9.84,0-4.45,3.64-8.53,7.72-8.7C632.28,661.1,635.85,665.91,635.79,670.56Z" transform="translate(-224.32 -396.89)"/><path class="cls-2" d="M518,638.22c0-5,2.25-7.39,7.19-7.4a7.55,7.55,0,0,1,8,7.61,7.39,7.39,0,0,1-7.55,7.52C520.62,646,518,643.39,518,638.22Z" transform="translate(-224.32 -396.89)"/><path class="cls-2" d="M423,554.19c-.22,6.31-.37,12.66-5,17.74-3.57,3.9-9.31,5.56-14.06,3.72s-6.47-6-6.6-10.75c-.22-8.34,2.09-15.72,8.56-21.43a12.66,12.66,0,0,0,3-3.27c1.56-3,4.06-3,6.81-2.65a6.36,6.36,0,0,1,5.71,4.82A36.83,36.83,0,0,1,423,554.19ZM419.57,553a59.25,59.25,0,0,0-.88-8.12c-.46-2.06-1.56-5-4.47-3.74-8.12,3.51-14.28,14.4-13.86,23.57.16,3.57,1.29,6.68,4.84,8,3.74,1.34,7.05.32,9.94-2.58C419.63,565.53,419.37,559.86,419.57,553Z" transform="translate(-224.32 -396.89)"/><path class="cls-2" d="M391.29,543.08c-.89,10.79-2.57,21.33-2.76,32,0,1.66-.47,3-2.51,2.93-2.44-.14-1.78-1.87-1.57-3.31.41-2.79.79-5.59,1.29-8.37.56-3.08-.64-4.11-3.74-4.16-8.09-.13-8.78-1-8.39-9.06.17-3.49.29-7,.56-10.47.13-1.79.17-3.88,2.95-3.5,2.63.35,1.85,2.33,1.68,3.85-.37,3.47-.81,6.94-1.36,10.38-.89,5.51,3.62,3.92,6.18,4.65,3.28.94,2.78-1.87,3-3.63.54-3.79.86-7.61,1.43-11.39.22-1.45-.53-4,1.94-3.81S390.91,541.85,391.29,543.08Z" transform="translate(-224.32 -396.89)"/><path class="cls-2" d="M434.05,543.57c-.51,3.86-.74,7.55-1.54,11.11-.61,2.75,0,4.25,2.82,4.54,2.61.28,5,.32,5.18-3.46s.92-7.59,1.52-11.37c.2-1.25.37-3.15,2-3,1.85.19,1.22,2.23,1,3.28-1.91,9.67-2.58,19.45-3.1,29.25-.08,1.38-.36,2.92-2.05,2.88-2,0-1.57-1.79-1.48-3s.42-2.28.6-3.43c.66-4.3,1.23-8.06-5.46-7.76-3.94.17-5.66-2.88-4.8-7,.81-3.91,1.44-7.86,2.12-11.8.25-1.41,0-3.51,2-3.33C434.72,540.6,433.56,542.64,434.05,543.57Z" transform="translate(-224.32 -396.89)"/><path class="cls-1" d="M419.57,553c-.2,6.9.06,12.57-4.43,17.08-2.89,2.9-6.2,3.92-9.94,2.58-3.55-1.27-4.68-4.38-4.84-8-.42-9.17,5.74-20.06,13.86-23.57,2.91-1.26,4,1.68,4.47,3.74A59.25,59.25,0,0,1,419.57,553Z" transform="translate(-224.32 -396.89)"/></svg>